<?xml version="1.0" encoding="UTF-8"?>
<!DOCTYPE svg PUBLIC "-//W3C//DTD SVG 1.1//EN" "http://www.w3.org/Graphics/SVG/1.1/DTD/svg11.dtd">
<!-- Creator: CorelDRAW X7 -->
<svg xmlns="http://www.w3.org/2000/svg" xml:space="preserve" width="49.2451mm" height="13.5458mm" version="1.1" style="shape-rendering:geometricPrecision; text-rendering:geometricPrecision; image-rendering:optimizeQuality; fill-rule:evenodd; clip-rule:evenodd"
viewBox="0 0 2859 786"
 xmlns:xlink="http://www.w3.org/1999/xlink">
 <defs>
  <style type="text/css">
   <![CDATA[
    .fil5 {fill:#FEFEFE}
    .fil1 {fill:#FEFEFE}
    .fil2 {fill:#2B2A29}
    .fil4 {fill:#C92123}
    .fil3 {fill:#FEFEFE;fill-rule:nonzero}
    .fil6 {fill:#2B2A29;fill-rule:nonzero}
    .fil0 {fill:#2B2A29;fill-rule:nonzero}
    .fil7 {fill:#C92123;fill-rule:nonzero}
   ]]>
  </style>
    <clipPath id="id0">
     <path d="M37 11l505 0c17,0 30,14 30,30l0 705c0,17 -13,31 -30,31l-505 0c-17,0 -30,-14 -30,-31l0 -705c0,-16 13,-30 30,-30z"/>
    </clipPath>
 </defs>
 <g id="Layer_x0020_1">
  <metadata id="CorelCorpID_0Corel-Layer"/>
  <g id="_444723520">
   <g>
    <path class="fil0" d="M542 18l-505 0 0 -14 505 0 0 0 0 14zm37 23l-14 0 0 0 0 -1 0 -1 0 -1 0 -1 0 -1 -1 -1 0 -2 -1 -1 0 -1 -1 -1 0 -1 -1 -1 0 0 -1 -1 -1 -1 -1 -1 0 -1 -1 0 -1 -1 -1 -1 -1 0 -1 -1 -1 0 -1 -1 -1 0 -1 -1 -1 0 -1 0 -1 0 -2 -1 -1 0 -1 0 0 -14 2 0 2 1 2 0 1 0 2 1 2 0 2 1 1 0 2 1 2 1 1 1 2 1 1 1 2 1 1 1 1 1 1 1 2 2 1 1 1 2 1 1 1 2 0 1 1 2 1 2 0 1 1 2 0 2 1 2 0 2 0 1 0 2 0 0zm-14 705l0 -705 14 0 0 705 0 0 -14 0zm-23 37l0 -13 0 0 1 0 1 -1 2 0 1 0 1 0 1 0 1 -1 1 0 1 -1 1 0 1 -1 1 0 1 -1 1 -1 1 0 0 -1 1 -1 1 -1 1 -1 0 -1 1 -1 0 -1 1 -1 0 -1 1 -1 0 -1 1 -1 0 -1 0 -1 0 -1 0 -1 0 -2 14 0 0 2 0 2 0 2 -1 2 0 2 -1 1 0 2 -1 2 -1 2 0 1 -1 2 -1 1 -1 2 -1 1 -2 1 -1 2 -1 1 -1 1 -2 1 -1 1 -2 1 -1 1 -2 1 -2 1 -1 0 -2 1 -2 0 -2 1 -1 0 -2 0 -2 0 -2 0 0 0zm-505 -13l505 0 0 13 -505 0 0 0 0 -13zm-37 -24l14 0 0 0 0 2 0 1 0 1 0 1 0 1 1 1 0 1 1 1 0 1 1 1 0 1 1 1 0 1 1 1 1 1 1 1 0 1 1 0 1 1 1 1 1 0 1 1 1 0 1 1 1 0 1 1 1 0 1 0 1 0 2 0 1 1 1 0 0 13 -2 0 -2 0 -2 0 -1 0 -2 -1 -2 0 -2 -1 -1 0 -2 -1 -2 -1 -1 -1 -2 -1 -1 -1 -2 -1 -1 -1 -1 -1 -1 -2 -2 -1 -1 -1 -1 -2 -1 -1 -1 -2 0 -1 -1 -2 -1 -2 0 -2 -1 -1 0 -2 -1 -2 0 -2 0 -2 0 -2 0 0zm14 -705l0 705 -14 0 0 -705 0 0 14 0zm23 -37l0 14 0 0 -1 0 -1 0 -2 1 -1 0 -1 0 -1 0 -1 1 -1 0 -1 1 -1 0 -1 1 -1 0 -1 1 -1 1 -1 0 0 1 -1 1 -1 1 -1 1 0 1 -1 0 0 1 -1 1 0 1 -1 1 0 2 -1 1 0 1 0 1 0 1 0 1 0 1 -14 0 0 -2 0 -1 0 -2 1 -2 0 -2 1 -2 0 -1 1 -2 1 -2 0 -1 1 -2 1 -1 1 -2 1 -1 2 -2 1 -1 1 -1 1 -1 2 -1 1 -1 2 -1 1 -1 2 -1 2 -1 1 0 2 -1 2 0 2 -1 1 0 2 0 2 -1 2 0 0 0z"/>
   </g>
   <path id="1" class="fil1" d="M37 11l505 0c17,0 30,14 30,30l0 705c0,17 -13,31 -30,31l-505 0c-17,0 -30,-14 -30,-31l0 -705c0,-16 13,-30 30,-30z"/>
   <g style="clip-path:url(#id0)">
    <g id="_444725200">
     <rect class="fil2" x="7" y="643" width="565" height="135"/>
     <path class="fil3" d="M42 750l0 -82 39 0c7,0 12,0 16,2 4,1 7,4 9,7 3,4 4,8 4,14 0,4 -1,8 -3,12 -2,3 -4,6 -7,8 -2,1 -5,2 -8,3 2,1 4,2 6,3 1,1 2,2 3,4 2,2 3,4 4,5l11 24 -26 0 -13 -25c-1,-3 -3,-5 -4,-6 -2,-2 -3,-2 -6,-2l-2 0 0 33 -23 0zm23 -49l10 0c1,0 3,0 6,-1 2,0 3,-1 4,-2 1,-2 2,-3 2,-5 0,-3 -1,-5 -3,-6 -1,-2 -4,-3 -8,-3l-11 0 0 17zm105 36l-27 0 -3 13 -24 0 28 -82 25 0 29 82 -25 0 -3 -13zm-5 -18l-9 -30 -8 30 17 0zm27 -51l24 0 17 59 17 -59 23 0 -28 82 -25 0 -28 -82zm90 0l23 0 0 82 -23 0 0 -82zm40 82l0 -82 39 0c7,0 12,0 16,2 4,1 7,4 9,7 3,4 4,8 4,14 0,4 -1,8 -3,12 -2,3 -4,6 -7,8 -2,1 -5,2 -8,3 2,1 4,2 6,3 0,1 2,2 3,4 2,2 3,4 4,5l11 24 -26 0 -13 -25c-1,-3 -3,-5 -4,-6 -2,-2 -4,-2 -6,-2l-2 0 0 33 -23 0zm23 -49l10 0c1,0 3,0 6,-1 2,0 3,-1 4,-2 1,-2 1,-3 1,-5 0,-3 0,-5 -2,-6 -1,-2 -4,-3 -9,-3l-10 0 0 17zm104 36l-26 0 -4 13 -23 0 28 -82 25 0 29 82 -25 0 -4 -13zm-4 -18l-9 -30 -8 30 17 0zm71 -51l23 0 0 45c0,9 0,16 -2,21 -1,5 -4,9 -9,13 -5,3 -11,5 -18,5 -7,0 -13,-2 -17,-4 -4,-2 -8,-5 -10,-10 -2,-4 -4,-9 -4,-16l22 -3c0,4 0,6 1,8 1,2 1,3 3,4 1,1 2,1 4,1 2,0 4,-1 5,-3 2,-2 2,-6 2,-11l0 -50z"/>
    </g>
   </g>
   <path class="fil4" d="M42 44c99,0 197,-2 296,0 235,5 214,361 -94,320l241 251 -443 0 0 -571z"/>
   <path class="fil5" d="M276 202l0 90c61,0 111,-40 111,-90 0,-49 -50,-89 -111,-89l0 89z"/>
   <polygon class="fil5" points="394,556 183,556 92,556 92,491 92,97 183,97 183,491 333,491 "/>
   <path class="fil2" d="M137 117c14,0 25,12 25,25 0,14 -11,26 -25,26 -13,0 -24,-12 -24,-26 0,-13 11,-25 24,-25z"/>
   <path class="fil6" d="M501 84l0 -26 12 0c3,0 5,0 6,0 1,1 2,2 3,3 1,1 1,2 1,4 0,2 -1,4 -2,5 -1,1 -3,2 -5,2 1,1 2,2 3,3 1,0 2,2 3,4l3 5 -6 0 -4 -6c-1,-2 -2,-3 -3,-4 0,0 -1,-1 -1,-1 -1,0 -2,0 -3,0l-1 0 0 11 -6 0zm6 -15l4 0c2,0 4,0 5,-1 0,0 1,0 1,-1 0,0 1,-1 1,-2 0,-1 -1,-1 -1,-2 -1,0 -1,-1 -2,-1 -1,0 -2,0 -4,0l-4 0 0 7z"/>
   <path class="fil0" d="M512 43c7,0 14,3 19,8 5,5 8,12 8,20 0,7 -3,14 -8,19 -5,5 -12,8 -19,8 -8,0 -15,-3 -20,-8 -5,-5 -8,-12 -8,-19 0,-8 3,-15 8,-20 5,-5 12,-8 20,-8zm16 11c-4,-4 -10,-6 -16,-6 -7,0 -12,2 -17,6 -4,5 -6,10 -6,17 0,6 2,12 6,16 5,4 10,7 17,7 6,0 12,-3 16,-7 4,-4 7,-10 7,-16 0,-7 -3,-12 -7,-17z"/>
   <g id="_444723880">
    <path class="fil0" d="M2604 729c0,6 -2,10 -6,13 -3,3 -7,4 -11,4 -1,0 -1,0 -1,0 0,0 0,0 0,0 -4,0 -8,-1 -12,-4 -3,-3 -5,-7 -5,-13 0,-6 2,-10 5,-13 4,-3 8,-4 12,-5 0,0 0,0 0,0 0,0 0,0 1,0 4,1 8,2 11,5 4,3 6,8 6,13l0 0zm-92 2l0 -66 -7 0c-6,0 -11,4 -14,10 -4,7 -6,14 -6,22 0,1 0,1 0,1 0,0 0,1 0,1 0,8 2,15 5,22 4,7 9,10 15,10l7 0zm0 -135l31 0 0 148 -51 0c-12,0 -22,-4 -29,-12 -7,-7 -11,-18 -12,-31 0,-13 4,-24 13,-34 9,-10 23,-15 40,-15l8 0 0 -56zm-146 56l77 0 0 18 -23 0 0 74 -31 0 0 -74 -23 0 0 -18zm-93 -44l38 0 0 116 50 0 0 20 -88 0 0 -136zm-97 121c0,6 -1,10 -5,13 -4,3 -7,4 -12,4 0,0 0,0 0,0 0,0 0,0 0,0 -5,0 -8,-1 -12,-4 -3,-3 -5,-7 -5,-13 0,-6 2,-10 5,-13 3,-3 7,-4 12,-5 0,0 0,0 0,0 0,0 0,0 0,0 5,1 8,2 12,5 4,3 5,8 5,13l0 0zm-126 -77l77 0 0 18 -23 0 0 74 -31 0 0 -74 -23 0 0 -18zm-86 0l31 0 19 69 18 -69 17 0 -23 80c-2,5 -4,8 -8,11 -3,2 -8,3 -12,3 0,0 0,0 0,0 0,0 0,0 -1,0 -4,0 -8,-1 -11,-4 -4,-2 -6,-6 -8,-11l-22 -79zm-81 -26l0 44 13 0c7,0 12,-2 16,-6 3,-5 5,-10 6,-15 0,0 0,-1 0,-1 0,0 0,0 0,0 0,-6 -2,-11 -6,-15 -3,-5 -9,-7 -17,-7l-12 0zm-37 -18l64 0c16,0 28,4 36,13 9,8 13,18 13,28 0,0 0,1 0,1 0,0 0,0 0,1 0,9 -3,19 -11,27 -7,8 -18,12 -32,12l-33 0 0 54 -37 0 0 -136zm-159 44l77 0 0 18 -23 0 0 74 -31 0 0 -74 -23 0 0 -18zm-10 23l-13 7c-3,-5 -5,-9 -8,-12 -2,-3 -5,-5 -9,-5 0,0 0,0 0,0 0,0 0,0 -1,0 0,0 0,0 0,0 0,0 0,0 -1,0 -6,0 -10,3 -14,10 -3,6 -5,15 -5,25 0,10 2,19 5,24 3,6 8,9 13,9 6,-1 11,-3 14,-6 2,-3 5,-7 7,-10 0,0 0,0 0,-1 0,0 0,0 0,0 0,0 1,-1 1,-1 0,-1 1,-2 1,-2l10 8c-1,1 -1,3 -2,4 0,1 -1,3 -2,4 -3,4 -7,8 -12,11 -5,4 -13,5 -22,5 -13,0 -23,-3 -30,-10 -6,-7 -10,-14 -12,-22 -1,-3 -1,-6 -2,-9 0,-2 0,-5 0,-7 0,-16 5,-27 14,-34 9,-7 20,-11 31,-11 0,0 0,0 1,0 0,0 0,0 0,0 8,0 15,2 20,6 5,3 9,7 12,11 1,1 2,2 2,3 1,1 1,2 2,3l0 0zm-98 -21l0 13 -22 0c-4,0 -6,1 -8,3 -1,2 -1,4 -1,9l0 12 27 0 0 15 -27 0 0 15c0,3 0,6 2,7 1,2 3,3 6,3l24 0 0 13 -47 0c-6,0 -10,-2 -13,-6 -2,-3 -3,-8 -3,-14l0 -51c0,-6 1,-11 5,-14 3,-3 8,-5 13,-5l44 0zm-86 -36c0,6 -1,10 -5,13 -3,3 -7,4 -12,4 0,0 0,0 0,0 0,0 0,0 0,0 -4,0 -8,-1 -12,-4 -3,-3 -5,-7 -5,-13 0,-6 2,-11 5,-14 4,-2 8,-4 12,-4 0,0 0,0 1,0 0,0 0,0 0,0 4,0 8,2 11,5 4,3 5,7 5,13l0 0zm-34 34l31 0 0 102c0,12 -2,20 -7,25 -4,5 -11,7 -19,7l-26 0 0 -14 6 0c8,0 12,-1 13,-3 2,-3 2,-6 2,-10 0,0 0,0 0,-1 0,0 0,-1 0,-1l0 -105zm-52 44c0,-1 0,-3 0,-5 -1,-3 -1,-5 -1,-7 -1,-5 -2,-10 -4,-14 -2,-4 -4,-6 -8,-6 -6,0 -9,3 -11,8 -2,6 -3,12 -4,19 0,2 0,4 0,6 0,1 0,3 0,4 0,2 0,4 0,7 0,2 1,5 1,8 1,4 2,9 4,12 2,4 5,6 10,6 4,0 8,-2 9,-8 2,-5 3,-10 4,-17 0,-2 0,-4 0,-6 0,-2 0,-4 0,-6l0 -1zm-13 -44c15,0 26,5 33,13 8,9 12,18 12,28 1,2 1,3 1,5 0,1 0,2 -1,3 0,13 -5,23 -14,32 -9,9 -20,13 -33,12 -15,0 -26,-5 -33,-14 -8,-9 -11,-20 -11,-33 -1,-14 3,-25 12,-33 8,-7 20,-12 34,-13l0 0zm-139 0l42 0c12,0 21,3 26,9 6,5 9,11 10,18 0,1 0,1 0,1 0,1 0,1 0,1 0,6 -2,11 -5,15 -3,5 -7,8 -13,9l26 39 -34 0 -21 -44c0,0 1,0 1,0 1,0 1,0 1,0 5,0 9,-2 11,-5 2,-4 3,-8 3,-13 0,-7 -1,-11 -4,-13 -3,-2 -7,-4 -14,-4l0 79 -29 0 0 -92zm-80 13l0 66c0,0 1,0 2,0 0,0 1,0 2,0 7,0 12,-2 17,-7 4,-4 6,-12 6,-24 0,-1 0,-3 0,-4 0,-1 0,-2 0,-3 -1,-8 -3,-14 -7,-20 -4,-6 -11,-8 -20,-8l0 0zm-32 -11l41 0c17,0 29,5 38,14 8,10 13,20 13,31 0,1 0,1 0,2 0,0 0,1 0,1 0,11 -3,20 -10,29 -7,9 -17,13 -31,13l-19 0 0 41 -32 0 0 -131zm-54 60l-11 -34 -10 34 21 0zm-45 30l22 -74c2,-5 5,-10 8,-12 4,-3 7,-5 11,-5 4,0 8,1 11,4 4,3 6,8 8,13l25 74 -31 0 -5 -17 -30 0 -5 17 -14 0zm-89 -92l43 0c12,0 20,3 26,9 6,5 9,11 9,18 0,1 1,1 1,1 0,1 0,1 0,1 0,6 -2,11 -5,15 -3,5 -8,8 -13,9l26 39 -34 0 -22 -44c1,0 1,0 2,0 0,0 1,0 1,0 5,0 8,-2 10,-5 3,-4 4,-8 4,-13 0,-7 -2,-11 -5,-13 -2,-2 -7,-4 -13,-4l0 79 -30 0 0 -92zm-11 -56l0 15 -15 0c-5,0 -8,2 -9,5 -1,3 -1,6 -1,10l0 26 21 0 0 17 -21 0 0 75 -31 0 0 -120c0,-9 2,-16 7,-21 4,-4 13,-6 26,-6l23 -1zm-156 148l0 -74c0,-6 2,-11 5,-14 3,-3 7,-4 11,-5 0,0 1,0 1,0 0,0 0,0 0,0 3,1 6,2 9,3 3,2 5,4 7,6l23 38 0 -46 16 0 0 82c0,4 -1,7 -3,9 -2,2 -5,3 -7,3 -1,0 -1,0 -2,0 0,0 0,0 -1,0 -2,-1 -3,-1 -5,-2 -2,-2 -3,-3 -5,-5l-33 -51 0 56 -16 0zm-67 -136l39 0 0 136 -39 0 0 -136z"/>
    <path class="fil7" d="M2859 68c0,21 -7,38 -20,48 -13,11 -28,16 -44,16 0,0 -1,0 -1,0 0,0 -1,0 -1,0 -16,0 -30,-5 -43,-16 -13,-11 -19,-27 -19,-48 0,-22 6,-39 19,-50 13,-11 28,-16 44,-16 0,0 1,0 2,0 0,0 1,0 2,0 15,1 29,7 42,18 13,12 19,28 19,48l0 0zm-128 128l116 0 0 379c0,47 -8,79 -26,96 -17,18 -41,27 -72,27l-98 0 0 -55 25 0c28,0 44,-4 49,-12 4,-7 6,-19 6,-35 0,-1 0,-2 0,-3 0,-2 0,-4 0,-5l0 -392zm-202 232l-43 -128 -37 128 80 0zm-172 111l86 -275c6,-21 16,-37 29,-48 13,-11 26,-16 41,-16 15,-1 29,5 42,15 13,11 23,28 29,49l92 275 -116 0 -19 -62 -110 0 -18 62 -56 0zm-330 -343l159 0c44,0 77,11 98,32 22,21 33,44 35,69 1,2 1,3 1,4 0,2 0,3 0,5 0,20 -6,38 -17,55 -12,17 -28,28 -50,32l98 146 -128 0 -79 -166c2,1 4,2 5,2 2,0 3,0 5,0 18,0 31,-7 39,-20 7,-13 11,-29 11,-48 0,-24 -5,-41 -15,-49 -10,-8 -27,-12 -52,-12l0 293 -110 0 0 -343zm-122 -196c18,1 34,6 47,18 13,11 20,26 20,44 0,18 -7,34 -20,47 -13,13 -29,20 -47,20 -18,0 -34,-7 -48,-20 -13,-13 -20,-29 -20,-47 0,-18 7,-33 20,-44 14,-12 30,-17 48,-17l0 -1zm-55 196l116 0 0 343 -116 0 0 -343zm-367 0l116 0 73 257 67 -257 62 0 -86 300c-4,17 -14,30 -28,39 -14,8 -29,12 -45,12 0,0 -1,0 -1,0 -1,0 -1,0 -2,0 -16,0 -30,-4 -44,-14 -13,-9 -22,-23 -27,-42l-85 -295zm-166 232l-43 -128 -36 128 79 0zm-171 111l86 -275c6,-21 15,-37 28,-48 13,-11 27,-16 42,-16 15,-1 29,5 42,15 12,11 22,28 28,49l92 275 -116 0 -19 -62 -110 0 -18 62 -55 0zm-465 -509l220 0c56,1 104,11 144,32 41,20 64,55 71,104 3,40 -7,74 -30,102 -22,28 -53,45 -93,52l129 219 -166 0 -128 -264c6,1 11,2 15,3 5,0 10,0 14,0 39,0 67,-9 84,-27 17,-19 25,-39 25,-61 0,-1 0,-1 0,-1 0,-1 0,-1 0,-2 0,-23 -9,-45 -26,-65 -17,-20 -40,-29 -69,-29l-49 -1 0 447 -141 0 0 -509z"/>
   </g>
  </g>
 </g>
</svg>
